# Blender v2.80 (sub 57) OBJ File: 'scene.blend'
# www.blender.org
mtllib scene.mtl
o Plane_Plane.001
v 20.813725 0.000000 -20.813725
v -20.813725 23.838036 20.813725
v 20.813725 23.838036 20.813725
v -20.813725 23.838036 -20.813725
v 20.813725 23.838036 -20.813725
v -20.813725 0.000000 -4.162745
v -20.813725 0.000000 4.162745
v 20.813725 0.000000 12.488235
v 20.813725 0.000000 4.162745
v 20.813725 0.000000 -4.162745
v 20.813725 0.000000 -12.488235
v -20.813725 23.838036 -12.488235
v -20.813725 23.838036 -4.162745
v -20.813725 23.838036 4.162745
v -20.813725 23.838036 12.488235
v 20.813725 23.838036 12.488235
v 20.813725 23.838036 4.162745
v 20.813725 23.838036 -4.162745
v 20.813725 23.838036 -12.488235
v -4.162745 0.000000 20.813725
v 4.162745 0.000000 20.813725
v 12.488235 0.000000 20.813725
v 12.488235 0.000000 -20.813725
v 4.162745 0.000000 -20.813725
v -4.162745 0.000000 -20.813725
v -12.488235 0.000000 -20.813725
v -12.488235 23.838036 20.813725
v -4.162745 23.838036 20.813725
v 4.162745 23.838036 20.813725
v 12.488235 23.838036 20.813725
v 12.488235 23.838036 -20.813725
v 4.162745 23.838036 -20.813725
v -4.162745 23.838036 -20.813725
v -12.488235 23.838036 -20.813725
v -20.813725 8.611779 12.488235
v -4.162745 0.000000 12.488235
v 4.162745 0.000000 12.488235
v 12.488235 0.000000 12.488235
v -12.488235 0.000000 4.162745
v -4.162745 0.000000 4.162745
v 4.162745 0.000000 4.162745
v 12.488235 0.000000 4.162745
v -12.488235 0.000000 -4.162745
v -4.162745 0.000000 -4.162745
v 4.162745 0.000000 -4.162745
v 12.488235 0.000000 -4.162745
v -12.488235 0.000000 -12.488235
v -4.162745 0.000000 -12.488235
v 4.162745 0.000000 -12.488235
v 12.488235 0.000000 -12.488235
v 20.813723 8.611779 20.813725
v 12.488235 4.380467 20.813725
v -20.813725 8.611779 4.162745
v -20.813725 8.611779 -4.162745
v -20.813725 4.380467 -4.162745
v -20.813725 4.380467 4.162745
v 20.813725 4.380467 12.488235
v 12.488235 4.380467 12.488235
v 20.813723 8.611779 -20.813725
v -4.162745 4.380467 20.813725
v -12.488235 4.380467 12.488235
v -4.162745 4.380467 12.488235
v -12.488235 4.380467 4.162745
v -4.162745 4.380467 4.162745
v -12.488235 4.380467 -4.162745
v -12.488235 4.380467 -12.488235
v 12.488235 8.611779 20.813725
v -12.488235 8.611779 -20.813725
v -20.813725 8.611779 -20.813725
v -20.813725 8.611779 -12.488235
v 20.813723 8.611779 12.488235
v 12.488235 8.611779 12.488235
v -12.488235 8.611779 20.813725
v -4.162745 8.611779 20.813725
v -12.488235 8.611779 12.488235
v -4.162745 8.611779 12.488235
v -12.488235 8.611779 4.162745
v -12.488235 8.611779 -4.162745
v -12.488235 8.611779 -12.488235
v -20.813725 14.011475 12.488235
v -20.813725 14.011475 20.813725
v -12.488235 14.011475 20.813725
v -12.488235 14.011475 12.488235
v 20.813723 8.611779 4.162745
v 20.813723 8.611779 -4.162745
v 20.813723 8.611779 -12.488235
v 4.162745 8.611779 20.813725
v 12.488235 8.611779 -20.813725
v 4.162745 8.611779 -20.813725
v -4.162745 8.611779 -20.813725
v -20.813725 14.011475 -20.813725
v 20.813725 14.011475 20.813725
v -20.813725 14.011475 -12.488235
v -20.813725 14.011475 -4.162745
v -20.813725 14.011475 4.162745
v 20.813725 14.011475 12.488235
v 20.813725 14.011475 4.162745
v 20.813725 14.011475 -4.162745
v 20.813725 14.011475 -12.488235
v -4.162745 14.011475 20.813725
v 4.162745 14.011475 20.813725
v 12.488235 14.011475 20.813725
v 12.488235 14.011475 -20.813725
v 4.162745 14.011475 -20.813725
v -4.162745 14.011475 -20.813725
v -12.488235 14.011475 -20.813725
v 20.813725 14.011475 -20.813725
v 20.813725 4.380467 -20.813725
v 20.813725 4.380467 -12.488235
v 20.813725 4.380467 -4.162745
v 12.488235 4.380467 -20.813725
v 20.813725 4.380467 4.162745
v -12.488235 4.380467 -20.813725
v 4.162745 4.380467 20.813725
v -4.162745 4.380467 -20.813725
v 4.162745 4.380467 -20.813725
vt 1.000000 0.800000
vt 0.800000 1.000000
vt 0.800000 0.800000
vt 0.200000 1.000000
vt 0.000000 1.000000
vt 0.200000 1.000000
vt 0.800000 0.000000
vt 1.000000 0.000000
vt 0.800000 0.000000
vt 1.000000 0.800000
vt 1.000000 1.000000
vt 1.000000 0.800000
vt 0.000000 0.200000
vt 0.000000 0.000000
vt 0.000000 0.200000
vt 0.000000 1.000000
vt 0.000000 0.800000
vt 0.000000 0.800000
vt 0.000000 0.600000
vt 0.000000 0.600000
vt 0.000000 0.400000
vt 0.000000 0.400000
vt 1.000000 0.000000
vt 1.000000 0.200000
vt 1.000000 0.200000
vt 1.000000 0.400000
vt 1.000000 0.400000
vt 1.000000 0.600000
vt 1.000000 0.600000
vt 0.200000 0.800000
vt 0.200000 0.600000
vt 0.200000 0.800000
vt 1.000000 0.200000
vt 0.800000 0.400000
vt 0.800000 0.200000
vt 1.000000 0.400000
vt 0.800000 0.600000
vt 1.000000 0.600000
vt 0.200000 0.600000
vt 0.000000 0.600000
vt 0.400000 0.600000
vt 0.600000 0.600000
vt 0.400000 0.800000
vt 0.600000 0.800000
vt 0.200000 0.400000
vt 0.000000 0.400000
vt 0.400000 0.400000
vt 0.600000 0.400000
vt 1.000000 0.400000
vt 1.000000 0.600000
vt 1.000000 0.400000
vt 0.600000 0.200000
vt 0.400000 0.200000
vt 0.400000 0.200000
vt 0.400000 0.000000
vt 1.000000 0.600000
vt 1.000000 0.800000
vt 0.600000 0.000000
vt 0.800000 0.000000
vt 0.000000 0.000000
vt 0.200000 0.000000
vt 0.200000 0.000000
vt 0.400000 0.000000
vt 0.400000 0.000000
vt 0.600000 0.000000
vt 0.600000 0.000000
vt 1.000000 1.000000
vt 0.800000 1.000000
vt 0.800000 1.000000
vt 0.600000 1.000000
vt 0.600000 1.000000
vt 0.400000 1.000000
vt 0.400000 1.000000
vt 0.200000 1.000000
vt 0.400000 1.000000
vt 0.600000 1.000000
vt 0.000000 0.600000
vt 0.000000 0.400000
vt 0.000000 0.600000
vt 0.200000 0.400000
vt 0.200000 0.200000
vt 0.200000 1.000000
vt 0.200000 1.000000
vt 0.800000 0.200000
vt 1.000000 0.200000
vt 0.800000 0.200000
vt 0.200000 0.600000
vt 0.800000 0.000000
vt 1.000000 0.800000
vt 1.000000 1.000000
vt 0.400000 0.400000
vt 0.400000 0.000000
vt 0.600000 0.000000
vt 0.400000 0.000000
vt 0.600000 0.000000
vt 1.000000 0.000000
vt 0.800000 0.000000
vt 0.000000 0.800000
vt 0.200000 0.200000
vt 0.000000 0.400000
vt 0.000000 0.200000
vt 0.200000 0.000000
vt 0.200000 0.800000
vt 0.000000 1.000000
vt 1.000000 1.000000
vt 0.800000 1.000000
vt 0.200000 0.400000
vt 0.800000 1.000000
vt 0.600000 1.000000
vt 0.400000 0.200000
vt 1.000000 0.200000
vt 0.600000 1.000000
vt 0.400000 1.000000
vt 0.200000 0.200000
vt 0.400000 1.000000
vt 1.000000 1.000000
vn 0.0000 1.0000 0.0000
vn 0.0000 0.0000 1.0000
vn 0.0000 0.0000 -1.0000
vn -1.0000 0.0000 0.0000
vn 1.0000 0.0000 0.0000
usemtl None
s off
f 11/1/1 23/2/1 50/3/1
f 34/4/2 91/5/2 106/6/2
f 30/7/3 92/8/3 102/9/3
f 19/10/4 107/11/4 99/12/4
f 15/13/5 81/14/5 80/15/5
f 4/16/5 93/17/5 91/5/5
f 12/18/5 94/19/5 93/17/5
f 13/20/5 95/21/5 94/19/5
f 14/22/5 80/15/5 95/21/5
f 3/23/4 96/24/4 92/8/4
f 16/25/4 97/26/4 96/24/4
f 17/27/4 98/28/4 97/26/4
f 18/29/4 99/12/4 98/28/4
f 66/30/5 43/31/5 47/32/5
f 8/33/1 42/34/1 38/35/1
f 9/36/1 46/37/1 42/34/1
f 10/38/1 50/3/1 46/37/1
f 65/39/2 6/40/2 43/31/2
f 44/41/1 47/32/1 43/31/1
f 45/42/1 48/43/1 44/41/1
f 46/37/1 49/44/1 45/42/1
f 39/45/1 6/40/1 7/46/1
f 40/47/1 43/31/1 39/45/1
f 41/48/1 44/41/1 40/47/1
f 42/34/1 45/42/1 41/48/1
f 84/49/4 110/50/4 112/51/4
f 37/52/1 40/47/1 36/53/1
f 38/35/1 41/48/1 37/52/1
f 62/54/5 20/55/5 36/53/5
f 85/56/4 109/57/4 110/50/4
f 21/58/1 36/53/1 20/55/1
f 22/59/1 37/52/1 21/58/1
f 2/60/3 82/61/3 81/14/3
f 27/62/3 100/63/3 82/61/3
f 28/64/3 101/65/3 100/63/3
f 29/66/3 102/9/3 101/65/3
f 5/67/2 103/68/2 107/11/2
f 31/69/2 104/70/2 103/68/2
f 32/71/2 105/72/2 104/70/2
f 33/73/2 106/6/2 105/72/2
f 48/43/1 26/74/1 47/32/1
f 49/44/1 25/75/1 48/43/1
f 50/3/1 24/76/1 49/44/1
f 54/77/5 56/78/5 55/79/5
f 62/54/1 63/80/1 61/81/1
f 68/82/5 66/30/5 113/83/5
f 72/84/3 57/85/3 58/86/3
f 78/87/2 55/79/2 65/39/2
f 52/88/4 38/35/4 22/59/4
f 86/89/4 108/90/4 109/57/4
f 58/86/3 8/33/3 38/35/3
f 64/91/5 36/53/5 40/47/5
f 113/83/5 47/32/5 26/74/5
f 74/92/3 114/93/3 60/94/3
f 87/95/3 52/88/3 114/93/3
f 56/78/3 39/45/3 7/46/3
f 63/80/3 40/47/3 39/45/3
f 51/96/1 72/84/1 67/97/1
f 78/87/1 70/98/1 54/77/1
f 75/99/1 53/100/1 35/101/1
f 80/15/3 75/99/3 35/101/3
f 74/92/1 75/99/1 73/102/1
f 79/103/1 69/104/1 70/98/1
f 79/103/5 65/39/5 66/30/5
f 59/105/2 111/106/2 108/90/2
f 77/107/5 61/81/5 63/80/5
f 75/99/3 62/54/3 61/81/3
f 53/100/3 63/80/3 56/78/3
f 88/108/2 116/109/2 111/106/2
f 76/110/5 60/94/5 62/54/5
f 71/111/4 112/51/4 57/85/4
f 67/97/4 58/86/4 52/88/4
f 82/61/1 80/15/1 81/14/1
f 89/112/2 115/113/2 116/109/2
f 83/114/5 73/102/5 75/99/5
f 90/115/2 113/83/2 115/113/2
f 105/72/2 68/82/2 90/115/2
f 104/70/2 90/115/2 89/112/2
f 103/68/2 89/112/2 88/108/2
f 107/11/2 88/108/2 59/105/2
f 101/65/3 67/97/3 87/95/3
f 100/63/3 87/95/3 74/92/3
f 82/61/3 74/92/3 73/102/3
f 98/28/4 86/89/4 85/56/4
f 97/26/4 85/56/4 84/49/4
f 96/24/4 84/49/4 71/111/4
f 92/8/4 71/111/4 51/96/4
f 95/21/5 35/101/5 53/100/5
f 94/19/5 53/100/5 54/77/5
f 93/17/5 54/77/5 70/98/5
f 91/5/5 70/98/5 69/104/5
f 99/12/4 59/105/4 86/89/4
f 102/9/3 51/96/3 67/97/3
f 106/6/2 69/104/2 68/82/2
f 115/113/2 26/74/2 25/75/2
f 116/109/2 25/75/2 24/76/2
f 57/85/4 9/36/4 8/33/4
f 111/106/2 24/76/2 23/2/2
f 108/90/2 23/2/2 1/116/2
f 114/93/3 22/59/3 21/58/3
f 60/94/3 21/58/3 20/55/3
f 109/57/4 1/116/4 11/1/4
f 55/79/5 7/46/5 6/40/5
f 110/50/4 11/1/4 10/38/4
f 112/51/4 10/38/4 9/36/4
f 11/1/1 1/116/1 23/2/1
f 34/4/2 4/16/2 91/5/2
f 30/7/3 3/23/3 92/8/3
f 19/10/4 5/67/4 107/11/4
f 15/13/5 2/60/5 81/14/5
f 4/16/5 12/18/5 93/17/5
f 12/18/5 13/20/5 94/19/5
f 13/20/5 14/22/5 95/21/5
f 14/22/5 15/13/5 80/15/5
f 3/23/4 16/25/4 96/24/4
f 16/25/4 17/27/4 97/26/4
f 17/27/4 18/29/4 98/28/4
f 18/29/4 19/10/4 99/12/4
f 66/30/5 65/39/5 43/31/5
f 8/33/1 9/36/1 42/34/1
f 9/36/1 10/38/1 46/37/1
f 10/38/1 11/1/1 50/3/1
f 65/39/2 55/79/2 6/40/2
f 44/41/1 48/43/1 47/32/1
f 45/42/1 49/44/1 48/43/1
f 46/37/1 50/3/1 49/44/1
f 39/45/1 43/31/1 6/40/1
f 40/47/1 44/41/1 43/31/1
f 41/48/1 45/42/1 44/41/1
f 42/34/1 46/37/1 45/42/1
f 84/49/4 85/56/4 110/50/4
f 37/52/1 41/48/1 40/47/1
f 38/35/1 42/34/1 41/48/1
f 62/54/5 60/94/5 20/55/5
f 85/56/4 86/89/4 109/57/4
f 21/58/1 37/52/1 36/53/1
f 22/59/1 38/35/1 37/52/1
f 2/60/3 27/62/3 82/61/3
f 27/62/3 28/64/3 100/63/3
f 28/64/3 29/66/3 101/65/3
f 29/66/3 30/7/3 102/9/3
f 5/67/2 31/69/2 103/68/2
f 31/69/2 32/71/2 104/70/2
f 32/71/2 33/73/2 105/72/2
f 33/73/2 34/4/2 106/6/2
f 48/43/1 25/75/1 26/74/1
f 49/44/1 24/76/1 25/75/1
f 50/3/1 23/2/1 24/76/1
f 54/77/5 53/100/5 56/78/5
f 62/54/1 64/91/1 63/80/1
f 68/82/5 79/103/5 66/30/5
f 72/84/3 71/111/3 57/85/3
f 78/87/2 54/77/2 55/79/2
f 52/88/4 58/86/4 38/35/4
f 86/89/4 59/105/4 108/90/4
f 58/86/3 57/85/3 8/33/3
f 64/91/5 62/54/5 36/53/5
f 113/83/5 66/30/5 47/32/5
f 74/92/3 87/95/3 114/93/3
f 87/95/3 67/97/3 52/88/3
f 56/78/3 63/80/3 39/45/3
f 63/80/3 64/91/3 40/47/3
f 51/96/1 71/111/1 72/84/1
f 78/87/1 79/103/1 70/98/1
f 75/99/1 77/107/1 53/100/1
f 80/15/3 83/114/3 75/99/3
f 74/92/1 76/110/1 75/99/1
f 79/103/1 68/82/1 69/104/1
f 79/103/5 78/87/5 65/39/5
f 59/105/2 88/108/2 111/106/2
f 77/107/5 75/99/5 61/81/5
f 75/99/3 76/110/3 62/54/3
f 53/100/3 77/107/3 63/80/3
f 88/108/2 89/112/2 116/109/2
f 76/110/5 74/92/5 60/94/5
f 71/111/4 84/49/4 112/51/4
f 67/97/4 72/84/4 58/86/4
f 82/61/1 83/114/1 80/15/1
f 89/112/2 90/115/2 115/113/2
f 83/114/5 82/61/5 73/102/5
f 90/115/2 68/82/2 113/83/2
f 105/72/2 106/6/2 68/82/2
f 104/70/2 105/72/2 90/115/2
f 103/68/2 104/70/2 89/112/2
f 107/11/2 103/68/2 88/108/2
f 101/65/3 102/9/3 67/97/3
f 100/63/3 101/65/3 87/95/3
f 82/61/3 100/63/3 74/92/3
f 98/28/4 99/12/4 86/89/4
f 97/26/4 98/28/4 85/56/4
f 96/24/4 97/26/4 84/49/4
f 92/8/4 96/24/4 71/111/4
f 95/21/5 80/15/5 35/101/5
f 94/19/5 95/21/5 53/100/5
f 93/17/5 94/19/5 54/77/5
f 91/5/5 93/17/5 70/98/5
f 99/12/4 107/11/4 59/105/4
f 102/9/3 92/8/3 51/96/3
f 106/6/2 91/5/2 69/104/2
f 115/113/2 113/83/2 26/74/2
f 116/109/2 115/113/2 25/75/2
f 57/85/4 112/51/4 9/36/4
f 111/106/2 116/109/2 24/76/2
f 108/90/2 111/106/2 23/2/2
f 114/93/3 52/88/3 22/59/3
f 60/94/3 114/93/3 21/58/3
f 109/57/4 108/90/4 1/116/4
f 55/79/5 56/78/5 7/46/5
f 110/50/4 109/57/4 11/1/4
f 112/51/4 110/50/4 10/38/4
